<svg id="visual" viewBox="0 0 900 600" width="900" height="600" xmlns="http://www.w3.org/2000/svg" xmlns:xlink="http://www.w3.org/1999/xlink" version="1.1"><rect x="0" y="0" width="900" height="600" fill="#1d222b"></rect><defs><linearGradient id="grad1_0" x1="33.3%" y1="0%" x2="100%" y2="100%"><stop offset="20%" stop-color="#2b7c80" stop-opacity="1"></stop><stop offset="80%" stop-color="#2b7c80" stop-opacity="1"></stop></linearGradient></defs><defs><linearGradient id="grad1_1" x1="33.3%" y1="0%" x2="100%" y2="100%"><stop offset="20%" stop-color="#2b7c80" stop-opacity="1"></stop><stop offset="80%" stop-color="#276e78" stop-opacity="1"></stop></linearGradient></defs><defs><linearGradient id="grad1_2" x1="33.3%" y1="0%" x2="100%" y2="100%"><stop offset="20%" stop-color="#26606e" stop-opacity="1"></stop><stop offset="80%" stop-color="#276e78" stop-opacity="1"></stop></linearGradient></defs><defs><linearGradient id="grad1_3" x1="33.3%" y1="0%" x2="100%" y2="100%"><stop offset="20%" stop-color="#26606e" stop-opacity="1"></stop><stop offset="80%" stop-color="#275362" stop-opacity="1"></stop></linearGradient></defs><defs><linearGradient id="grad1_4" x1="33.3%" y1="0%" x2="100%" y2="100%"><stop offset="20%" stop-color="#274655" stop-opacity="1"></stop><stop offset="80%" stop-color="#275362" stop-opacity="1"></stop></linearGradient></defs><defs><linearGradient id="grad1_5" x1="33.3%" y1="0%" x2="100%" y2="100%"><stop offset="20%" stop-color="#274655" stop-opacity="1"></stop><stop offset="80%" stop-color="#253947" stop-opacity="1"></stop></linearGradient></defs><defs><linearGradient id="grad1_6" x1="33.3%" y1="0%" x2="100%" y2="100%"><stop offset="20%" stop-color="#222d39" stop-opacity="1"></stop><stop offset="80%" stop-color="#253947" stop-opacity="1"></stop></linearGradient></defs><defs><linearGradient id="grad1_7" x1="33.3%" y1="0%" x2="100%" y2="100%"><stop offset="20%" stop-color="#222d39" stop-opacity="1"></stop><stop offset="80%" stop-color="#1d222b" stop-opacity="1"></stop></linearGradient></defs><defs><linearGradient id="grad2_0" x1="0%" y1="0%" x2="66.7%" y2="100%"><stop offset="20%" stop-color="#2b7c80" stop-opacity="1"></stop><stop offset="80%" stop-color="#2b7c80" stop-opacity="1"></stop></linearGradient></defs><defs><linearGradient id="grad2_1" x1="0%" y1="0%" x2="66.7%" y2="100%"><stop offset="20%" stop-color="#276e78" stop-opacity="1"></stop><stop offset="80%" stop-color="#2b7c80" stop-opacity="1"></stop></linearGradient></defs><defs><linearGradient id="grad2_2" x1="0%" y1="0%" x2="66.7%" y2="100%"><stop offset="20%" stop-color="#276e78" stop-opacity="1"></stop><stop offset="80%" stop-color="#26606e" stop-opacity="1"></stop></linearGradient></defs><defs><linearGradient id="grad2_3" x1="0%" y1="0%" x2="66.7%" y2="100%"><stop offset="20%" stop-color="#275362" stop-opacity="1"></stop><stop offset="80%" stop-color="#26606e" stop-opacity="1"></stop></linearGradient></defs><defs><linearGradient id="grad2_4" x1="0%" y1="0%" x2="66.7%" y2="100%"><stop offset="20%" stop-color="#275362" stop-opacity="1"></stop><stop offset="80%" stop-color="#274655" stop-opacity="1"></stop></linearGradient></defs><defs><linearGradient id="grad2_5" x1="0%" y1="0%" x2="66.7%" y2="100%"><stop offset="20%" stop-color="#253947" stop-opacity="1"></stop><stop offset="80%" stop-color="#274655" stop-opacity="1"></stop></linearGradient></defs><defs><linearGradient id="grad2_6" x1="0%" y1="0%" x2="66.7%" y2="100%"><stop offset="20%" stop-color="#253947" stop-opacity="1"></stop><stop offset="80%" stop-color="#222d39" stop-opacity="1"></stop></linearGradient></defs><defs><linearGradient id="grad2_7" x1="0%" y1="0%" x2="66.7%" y2="100%"><stop offset="20%" stop-color="#1d222b" stop-opacity="1"></stop><stop offset="80%" stop-color="#222d39" stop-opacity="1"></stop></linearGradient></defs><g transform="translate(900, 0)"><path d="M0 351.5C-62.6 343 -125.3 334.5 -175.8 304.4C-226.3 274.4 -264.6 222.8 -291.9 168.5C-319.1 114.2 -335.3 57.1 -351.5 0L0 0Z" fill="#202732"></path><path d="M0 307.6C-54.8 300.1 -109.6 292.7 -153.8 266.4C-198 240.1 -231.5 195 -255.4 147.4C-279.2 99.9 -293.4 50 -307.6 0L0 0Z" fill="#243340"></path><path d="M0 263.7C-47 257.3 -94 250.9 -131.8 228.3C-169.7 205.8 -198.4 167.1 -218.9 126.4C-239.3 85.6 -251.5 42.8 -263.7 0L0 0Z" fill="#263f4e"></path><path d="M0 219.7C-39.2 214.4 -78.3 209.1 -109.9 190.3C-141.4 171.5 -165.4 139.3 -182.4 105.3C-199.4 71.4 -209.6 35.7 -219.7 0L0 0Z" fill="#274c5c"></path><path d="M0 175.8C-31.3 171.5 -62.6 167.2 -87.9 152.2C-113.1 137.2 -132.3 111.4 -145.9 84.3C-159.6 57.1 -167.7 28.5 -175.8 0L0 0Z" fill="#275968"></path><path d="M0 131.8C-23.5 128.6 -47 125.4 -65.9 114.2C-84.8 102.9 -99.2 83.6 -109.4 63.2C-119.7 42.8 -125.7 21.4 -131.8 0L0 0Z" fill="#276773"></path><path d="M0 87.9C-15.7 85.8 -31.3 83.6 -43.9 76.1C-56.6 68.6 -66.1 55.7 -73 42.1C-79.8 28.5 -83.8 14.3 -87.9 0L0 0Z" fill="#29757c"></path><path d="M0 43.9C-7.8 42.9 -15.7 41.8 -22 38.1C-28.3 34.3 -33.1 27.9 -36.5 21.1C-39.9 14.3 -41.9 7.1 -43.9 0L0 0Z" fill="#2b7c80"></path></g><g transform="translate(0, 600)"><path d="M0 -351.5C70.5 -347.5 141 -343.6 175.8 -304.4C210.6 -265.3 209.6 -191.1 233 -134.5C256.3 -77.9 303.9 -39 351.5 0L0 0Z" fill="#202732"></path><path d="M0 -307.6C61.7 -304.1 123.4 -300.6 153.8 -266.4C184.2 -232.2 183.4 -167.2 203.8 -117.7C224.3 -68.2 265.9 -34.1 307.6 0L0 0Z" fill="#243340"></path><path d="M0 -263.7C52.9 -260.7 105.7 -257.7 131.8 -228.3C157.9 -199 157.2 -143.3 174.7 -100.9C192.2 -58.4 227.9 -29.2 263.7 0L0 0Z" fill="#263f4e"></path><path d="M0 -219.7C44.1 -217.2 88.1 -214.7 109.9 -190.3C131.6 -165.8 131 -119.4 145.6 -84.1C160.2 -48.7 190 -24.3 219.7 0L0 0Z" fill="#274c5c"></path><path d="M0 -175.8C35.2 -173.8 70.5 -171.8 87.9 -152.2C105.3 -132.7 104.8 -95.5 116.5 -67.3C128.2 -39 152 -19.5 175.8 0L0 0Z" fill="#275968"></path><path d="M0 -131.8C26.4 -130.3 52.9 -128.8 65.9 -114.2C79 -99.5 78.6 -71.7 87.4 -50.4C96.1 -29.2 114 -14.6 131.8 0L0 0Z" fill="#276773"></path><path d="M0 -87.9C17.6 -86.9 35.2 -85.9 43.9 -76.1C52.6 -66.3 52.4 -47.8 58.2 -33.6C64.1 -19.5 76 -9.7 87.9 0L0 0Z" fill="#29757c"></path><path d="M0 -43.9C8.8 -43.4 17.6 -42.9 22 -38.1C26.3 -33.2 26.2 -23.9 29.1 -16.8C32 -9.7 38 -4.9 43.9 0L0 0Z" fill="#2b7c80"></path></g></svg>