<svg id="visual" viewBox="0 0 900 600" width="900" height="600" xmlns="http://www.w3.org/2000/svg" xmlns:xlink="http://www.w3.org/1999/xlink" version="1.1"><rect x="0" y="0" width="900" height="600" fill="#ffffff"></rect><defs><linearGradient id="grad1_0" x1="33.3%" y1="0%" x2="100%" y2="100%"><stop offset="20%" stop-color="#2c77a9" stop-opacity="1"></stop><stop offset="80%" stop-color="#2c77a9" stop-opacity="1"></stop></linearGradient></defs><defs><linearGradient id="grad1_1" x1="33.3%" y1="0%" x2="100%" y2="100%"><stop offset="20%" stop-color="#2c77a9" stop-opacity="1"></stop><stop offset="80%" stop-color="#6190ba" stop-opacity="1"></stop></linearGradient></defs><defs><linearGradient id="grad1_2" x1="33.3%" y1="0%" x2="100%" y2="100%"><stop offset="20%" stop-color="#8aabcb" stop-opacity="1"></stop><stop offset="80%" stop-color="#6190ba" stop-opacity="1"></stop></linearGradient></defs><defs><linearGradient id="grad1_3" x1="33.3%" y1="0%" x2="100%" y2="100%"><stop offset="20%" stop-color="#8aabcb" stop-opacity="1"></stop><stop offset="80%" stop-color="#b2c6dc" stop-opacity="1"></stop></linearGradient></defs><defs><linearGradient id="grad1_4" x1="33.3%" y1="0%" x2="100%" y2="100%"><stop offset="20%" stop-color="#d8e2ee" stop-opacity="1"></stop><stop offset="80%" stop-color="#b2c6dc" stop-opacity="1"></stop></linearGradient></defs><defs><linearGradient id="grad1_5" x1="33.3%" y1="0%" x2="100%" y2="100%"><stop offset="20%" stop-color="#d8e2ee" stop-opacity="1"></stop><stop offset="80%" stop-color="#ffffff" stop-opacity="1"></stop></linearGradient></defs><defs><linearGradient id="grad2_0" x1="0%" y1="0%" x2="66.7%" y2="100%"><stop offset="20%" stop-color="#2c77a9" stop-opacity="1"></stop><stop offset="80%" stop-color="#2c77a9" stop-opacity="1"></stop></linearGradient></defs><defs><linearGradient id="grad2_1" x1="0%" y1="0%" x2="66.7%" y2="100%"><stop offset="20%" stop-color="#6190ba" stop-opacity="1"></stop><stop offset="80%" stop-color="#2c77a9" stop-opacity="1"></stop></linearGradient></defs><defs><linearGradient id="grad2_2" x1="0%" y1="0%" x2="66.7%" y2="100%"><stop offset="20%" stop-color="#6190ba" stop-opacity="1"></stop><stop offset="80%" stop-color="#8aabcb" stop-opacity="1"></stop></linearGradient></defs><defs><linearGradient id="grad2_3" x1="0%" y1="0%" x2="66.7%" y2="100%"><stop offset="20%" stop-color="#b2c6dc" stop-opacity="1"></stop><stop offset="80%" stop-color="#8aabcb" stop-opacity="1"></stop></linearGradient></defs><defs><linearGradient id="grad2_4" x1="0%" y1="0%" x2="66.7%" y2="100%"><stop offset="20%" stop-color="#b2c6dc" stop-opacity="1"></stop><stop offset="80%" stop-color="#d8e2ee" stop-opacity="1"></stop></linearGradient></defs><defs><linearGradient id="grad2_5" x1="0%" y1="0%" x2="66.7%" y2="100%"><stop offset="20%" stop-color="#ffffff" stop-opacity="1"></stop><stop offset="80%" stop-color="#d8e2ee" stop-opacity="1"></stop></linearGradient></defs><g transform="translate(900, 0)"><path d="M0 378.6C-50.9 373.4 -101.7 368.2 -143.9 347.4C-186.1 326.6 -219.6 290.1 -255.3 255.3C-291 220.4 -328.8 187.2 -349.8 144.9C-370.7 102.6 -374.6 51.3 -378.6 0L0 0Z" fill="#ecf1f6"></path><path d="M0 315.5C-42.4 311.2 -84.8 306.8 -119.9 289.5C-155.1 272.1 -183 241.8 -212.7 212.7C-242.5 183.7 -274 156 -291.5 120.7C-308.9 85.5 -312.2 42.7 -315.5 0L0 0Z" fill="#c5d4e5"></path><path d="M0 252.4C-33.9 248.9 -67.8 245.5 -95.9 231.6C-124 217.7 -146.4 193.4 -170.2 170.2C-194 146.9 -219.2 124.8 -233.2 96.6C-247.1 68.4 -249.8 34.2 -252.4 0L0 0Z" fill="#9eb8d4"></path><path d="M0 189.3C-25.4 186.7 -50.9 184.1 -71.9 173.7C-93 163.3 -109.8 145.1 -127.6 127.6C-145.5 110.2 -164.4 93.6 -174.9 72.4C-185.3 51.3 -187.3 25.6 -189.3 0L0 0Z" fill="#769ec3"></path><path d="M0 126.2C-17 124.5 -33.9 122.7 -48 115.8C-62 108.9 -73.2 96.7 -85.1 85.1C-97 73.5 -109.6 62.4 -116.6 48.3C-123.6 34.2 -124.9 17.1 -126.2 0L0 0Z" fill="#4984b1"></path><path d="M0 63.1C-8.5 62.2 -17 61.4 -24 57.9C-31 54.4 -36.6 48.4 -42.5 42.5C-48.5 36.7 -54.8 31.2 -58.3 24.1C-61.8 17.1 -62.4 8.5 -63.1 0L0 0Z" fill="#2c77a9"></path></g><g transform="translate(0, 600)"><path d="M0 -378.6C50.4 -373.8 100.7 -369.1 144.9 -349.8C189 -330.5 227 -296.6 260.2 -260.2C293.4 -223.9 322 -185 340.9 -141.2C359.9 -97.4 369.2 -48.7 378.6 0L0 0Z" fill="#ecf1f6"></path><path d="M0 -315.5C42 -311.5 83.9 -307.6 120.7 -291.5C157.5 -275.4 189.2 -247.1 216.8 -216.8C244.5 -186.5 268.3 -154.2 284.1 -117.7C299.9 -81.2 307.7 -40.6 315.5 0L0 0Z" fill="#c5d4e5"></path><path d="M0 -252.4C33.6 -249.2 67.1 -246.1 96.6 -233.2C126 -220.3 151.3 -197.7 173.5 -173.5C195.6 -149.2 214.6 -123.3 227.3 -94.1C239.9 -65 246.1 -32.5 252.4 0L0 0Z" fill="#9eb8d4"></path><path d="M0 -189.3C25.2 -186.9 50.4 -184.5 72.4 -174.9C94.5 -165.2 113.5 -148.3 130.1 -130.1C146.7 -111.9 161 -92.5 170.5 -70.6C179.9 -48.7 184.6 -24.4 189.3 0L0 0Z" fill="#769ec3"></path><path d="M0 -126.2C16.8 -124.6 33.6 -123 48.3 -116.6C63 -110.2 75.7 -98.9 86.7 -86.7C97.8 -74.6 107.3 -61.7 113.6 -47.1C120 -32.5 123.1 -16.2 126.2 0L0 0Z" fill="#4984b1"></path><path d="M0 -63.1C8.4 -62.3 16.8 -61.5 24.1 -58.3C31.5 -55.1 37.8 -49.4 43.4 -43.4C48.9 -37.3 53.7 -30.8 56.8 -23.5C60 -16.2 61.5 -8.1 63.1 0L0 0Z" fill="#2c77a9"></path></g></svg>