<svg id="visual" viewBox="0 0 900 600" width="900" height="600" xmlns="http://www.w3.org/2000/svg" xmlns:xlink="http://www.w3.org/1999/xlink" version="1.1"><rect x="0" y="0" width="900" height="600" fill="#ffffff"></rect><defs><linearGradient id="grad1_0" x1="33.3%" y1="0%" x2="100%" y2="100%"><stop offset="20%" stop-color="#55bb91" stop-opacity="1"></stop><stop offset="80%" stop-color="#55bb91" stop-opacity="1"></stop></linearGradient></defs><defs><linearGradient id="grad1_1" x1="33.3%" y1="0%" x2="100%" y2="100%"><stop offset="20%" stop-color="#55bb91" stop-opacity="1"></stop><stop offset="80%" stop-color="#71c5a0" stop-opacity="1"></stop></linearGradient></defs><defs><linearGradient id="grad1_2" x1="33.3%" y1="0%" x2="100%" y2="100%"><stop offset="20%" stop-color="#8acfaf" stop-opacity="1"></stop><stop offset="80%" stop-color="#71c5a0" stop-opacity="1"></stop></linearGradient></defs><defs><linearGradient id="grad1_3" x1="33.3%" y1="0%" x2="100%" y2="100%"><stop offset="20%" stop-color="#8acfaf" stop-opacity="1"></stop><stop offset="80%" stop-color="#a2d9bf" stop-opacity="1"></stop></linearGradient></defs><defs><linearGradient id="grad1_4" x1="33.3%" y1="0%" x2="100%" y2="100%"><stop offset="20%" stop-color="#bae2cf" stop-opacity="1"></stop><stop offset="80%" stop-color="#a2d9bf" stop-opacity="1"></stop></linearGradient></defs><defs><linearGradient id="grad1_5" x1="33.3%" y1="0%" x2="100%" y2="100%"><stop offset="20%" stop-color="#bae2cf" stop-opacity="1"></stop><stop offset="80%" stop-color="#d1ecdf" stop-opacity="1"></stop></linearGradient></defs><defs><linearGradient id="grad1_6" x1="33.3%" y1="0%" x2="100%" y2="100%"><stop offset="20%" stop-color="#e8f6ef" stop-opacity="1"></stop><stop offset="80%" stop-color="#d1ecdf" stop-opacity="1"></stop></linearGradient></defs><defs><linearGradient id="grad1_7" x1="33.3%" y1="0%" x2="100%" y2="100%"><stop offset="20%" stop-color="#e8f6ef" stop-opacity="1"></stop><stop offset="80%" stop-color="#ffffff" stop-opacity="1"></stop></linearGradient></defs><defs><linearGradient id="grad2_0" x1="0%" y1="0%" x2="66.7%" y2="100%"><stop offset="20%" stop-color="#55bb91" stop-opacity="1"></stop><stop offset="80%" stop-color="#55bb91" stop-opacity="1"></stop></linearGradient></defs><defs><linearGradient id="grad2_1" x1="0%" y1="0%" x2="66.7%" y2="100%"><stop offset="20%" stop-color="#71c5a0" stop-opacity="1"></stop><stop offset="80%" stop-color="#55bb91" stop-opacity="1"></stop></linearGradient></defs><defs><linearGradient id="grad2_2" x1="0%" y1="0%" x2="66.7%" y2="100%"><stop offset="20%" stop-color="#71c5a0" stop-opacity="1"></stop><stop offset="80%" stop-color="#8acfaf" stop-opacity="1"></stop></linearGradient></defs><defs><linearGradient id="grad2_3" x1="0%" y1="0%" x2="66.7%" y2="100%"><stop offset="20%" stop-color="#a2d9bf" stop-opacity="1"></stop><stop offset="80%" stop-color="#8acfaf" stop-opacity="1"></stop></linearGradient></defs><defs><linearGradient id="grad2_4" x1="0%" y1="0%" x2="66.7%" y2="100%"><stop offset="20%" stop-color="#a2d9bf" stop-opacity="1"></stop><stop offset="80%" stop-color="#bae2cf" stop-opacity="1"></stop></linearGradient></defs><defs><linearGradient id="grad2_5" x1="0%" y1="0%" x2="66.7%" y2="100%"><stop offset="20%" stop-color="#d1ecdf" stop-opacity="1"></stop><stop offset="80%" stop-color="#bae2cf" stop-opacity="1"></stop></linearGradient></defs><defs><linearGradient id="grad2_6" x1="0%" y1="0%" x2="66.7%" y2="100%"><stop offset="20%" stop-color="#d1ecdf" stop-opacity="1"></stop><stop offset="80%" stop-color="#e8f6ef" stop-opacity="1"></stop></linearGradient></defs><defs><linearGradient id="grad2_7" x1="0%" y1="0%" x2="66.7%" y2="100%"><stop offset="20%" stop-color="#ffffff" stop-opacity="1"></stop><stop offset="80%" stop-color="#e8f6ef" stop-opacity="1"></stop></linearGradient></defs><g transform="translate(900, 0)"><path d="M0 459.7C-85.5 450.6 -170.9 441.5 -229.9 398.1C-288.8 354.7 -321.2 277.1 -355.1 205C-389 132.9 -424.3 66.5 -459.7 0L0 0Z" fill="#f4faf7"></path><path d="M0 402.2C-74.8 394.3 -149.6 386.3 -201.1 348.4C-252.7 310.4 -281 242.4 -310.7 179.4C-340.3 116.3 -371.3 58.2 -402.2 0L0 0Z" fill="#ddf1e7"></path><path d="M0 344.8C-64.1 338 -128.2 331.1 -172.4 298.6C-216.6 266.1 -240.9 207.8 -266.3 153.8C-291.7 99.7 -318.2 49.8 -344.8 0L0 0Z" fill="#c6e7d7"></path><path d="M0 287.3C-53.4 281.6 -106.8 275.9 -143.7 248.8C-180.5 221.7 -200.7 173.2 -221.9 128.1C-243.1 83.1 -265.2 41.5 -287.3 0L0 0Z" fill="#aedec7"></path><path d="M0 229.9C-42.7 225.3 -85.5 220.8 -114.9 199.1C-144.4 177.4 -160.6 138.5 -177.5 102.5C-194.5 66.5 -212.2 33.2 -229.9 0L0 0Z" fill="#96d4b7"></path><path d="M0 172.4C-32 169 -64.1 165.6 -86.2 149.3C-108.3 133 -120.4 103.9 -133.2 76.9C-145.9 49.8 -159.1 24.9 -172.4 0L0 0Z" fill="#7ecaa8"></path><path d="M0 114.9C-21.4 112.7 -42.7 110.4 -57.5 99.5C-72.2 88.7 -80.3 69.3 -88.8 51.3C-97.2 33.2 -106.1 16.6 -114.9 0L0 0Z" fill="#63c099"></path><path d="M0 57.5C-10.7 56.3 -21.4 55.2 -28.7 49.8C-36.1 44.3 -40.1 34.6 -44.4 25.6C-48.6 16.6 -53 8.3 -57.5 0L0 0Z" fill="#55bb91"></path></g><g transform="translate(0, 600)"><path d="M0 -459.7C79 -446 158 -432.4 228.5 -395.8C299 -359.2 361 -299.6 398.1 -229.9C435.2 -160.1 447.5 -80 459.7 0L0 0Z" fill="#f4faf7"></path><path d="M0 -402.2C69.1 -390.3 138.2 -378.3 199.9 -346.3C261.6 -314.3 315.9 -262.2 348.4 -201.1C380.8 -140.1 391.5 -70 402.2 0L0 0Z" fill="#ddf1e7"></path><path d="M0 -344.8C59.2 -334.5 118.5 -324.3 171.4 -296.8C224.3 -269.4 270.8 -224.7 298.6 -172.4C326.4 -120.1 335.6 -60 344.8 0L0 0Z" fill="#c6e7d7"></path><path d="M0 -287.3C49.4 -278.8 98.7 -270.2 142.8 -247.4C186.9 -224.5 225.6 -187.3 248.8 -143.7C272 -100 279.7 -50 287.3 0L0 0Z" fill="#aedec7"></path><path d="M0 -229.9C39.5 -223 79 -216.2 114.2 -197.9C149.5 -179.6 180.5 -149.8 199.1 -114.9C217.6 -80 223.7 -40 229.9 0L0 0Z" fill="#96d4b7"></path><path d="M0 -172.4C29.6 -167.3 59.2 -162.1 85.7 -148.4C112.1 -134.7 135.4 -112.4 149.3 -86.2C163.2 -60 167.8 -30 172.4 0L0 0Z" fill="#7ecaa8"></path><path d="M0 -114.9C19.7 -111.5 39.5 -108.1 57.1 -98.9C74.8 -89.8 90.3 -74.9 99.5 -57.5C108.8 -40 111.9 -20 114.9 0L0 0Z" fill="#63c099"></path><path d="M0 -57.5C9.9 -55.8 19.7 -54 28.6 -49.5C37.4 -44.9 45.1 -37.5 49.8 -28.7C54.4 -20 55.9 -10 57.5 0L0 0Z" fill="#55bb91"></path></g></svg>